<svg id="Layer_1" xmlns="http://www.w3.org/2000/svg" xmlns:xlink="http://www.w3.org/1999/xlink" version="1.1" viewBox="0 0 500 500">
  
  <defs>
    <style>
      .st0 {
        fill: url(#linear-gradient1);
      }

      .st1 {
        fill: url(#linear-gradient);
      }
    </style>
    <linearGradient id="linear-gradient" x1="372.43" y1="127.58" x2="127.6" y2="372.42" gradientUnits="userSpaceOnUse">
      <stop offset=".22" stop-color="#1430ad"></stop>
      <stop offset=".75" stop-color="#001579"></stop>
    </linearGradient>
    <linearGradient id="linear-gradient1" x1="1909.57" y1="953.76" x2="1664.73" y2="1198.59" gradientTransform="translate(2037.14 1326.18) rotate(-180)" xlink:href="#linear-gradient"></linearGradient>
  </defs>
  <path class="st1" d="M480.72,235.87L250.01,5.16h0c-47.46,47.46-47.46,124.41,0,171.88l72.97,72.97-72.97,72.97h0c47.46,47.46,47.46,124.4,0,171.87l230.7-230.7c7.81-7.81,7.81-20.46,0-28.27Z"></path>
  <path class="st0" d="M19.28,264.13l230.71,230.71h0c47.46-47.46,47.46-124.41,0-171.88l-72.97-72.97,72.97-72.97h0c-47.46-47.46-47.46-124.4,0-171.87L19.28,235.86c-7.81,7.81-7.81,20.46,0,28.27Z"></path>
</svg>